Coordinates
version=1
nRows=9
nColumns=36
inDegrees=yes

Units are S.I. units (second, meters, Newtons, ...)
If the header above contains a line with 'inDegrees', this indicates whether rotational values are in degrees (yes) or radians (no).

endheader
time	pelvis_tilt	pelvis_list	pelvis_rotation	pelvis_tx	pelvis_ty	pelvis_tz	hip_flexion_r	hip_adduction_r	hip_rotation_r	knee_angle_r	knee_angle_r_beta	ankle_angle_r	subtalar_angle_r	mtp_angle_r	hip_flexion_l	hip_adduction_l	hip_rotation_l	knee_angle_l	knee_angle_l_beta	ankle_angle_l	subtalar_angle_l	mtp_angle_l	lumbar_extension	lumbar_bending	lumbar_rotation	arm_flex_r	arm_add_r	arm_rot_r	elbow_flex_r	pro_sup_r	arm_flex_l	arm_add_l	arm_rot_l	elbow_flex_l	pro_sup_l
      2.43333330	     -2.03020228	      1.17454677	     12.56363652	      1.12690652	      0.99799518	      0.18376209	      8.01745276	     -1.04454416	     -0.76762961	     16.32519830	      0.28492846	     17.19100441	     -5.07267722	     -7.49999987	     10.34343728	    -12.36110035	    -14.78510112	     17.05764630	      0.29771209	      6.20415357	     -9.68240040	     -7.49999987	     -7.05421428	      1.82613969	    -10.70551134	     52.69199427	     -1.91815127	     60.38782284	    124.22275000	     98.45061220	     45.47267601	      2.02674162	     63.37948726	    114.27453801	    109.44090572
      2.45000000	     -1.89391172	      1.27173604	     12.99560482	      1.12640911	      0.99882227	      0.18400654	      7.81767016	     -0.98409371	     -0.70471071	     16.55655683	      0.28896643	     17.52310417	     -4.63235145	     -7.49999987	     11.83434992	    -12.76758732	    -14.75383842	     17.82827586	      0.31116211	      6.22337497	     -9.71057062	     -7.49999987	     -7.34560740	      2.10857020	    -10.79079568	     52.41247588	     -2.11639833	     60.14885026	    123.91912667	     98.47159329	     45.39269767	      2.13618143	     63.75233584	    114.45866442	    109.76165006
      2.46666670	     -1.96416839	      1.28395087	     13.35758703	      1.12678143	      1.00148774	      0.18910613	      7.77385785	     -0.89390327	     -0.63104864	     16.54091215	      0.28869338	     17.68020444	     -4.09816014	     -7.49999987	     13.50773871	    -13.12563319	    -14.56231214	     18.20094101	      0.31766635	      6.02928246	    -10.11234957	     -7.49999987	     -7.38911008	      2.44908731	    -10.88861597	     51.86272248	     -2.03825583	     60.03651460	    123.66324309	     97.15075053	     45.24293333	      2.30992882	     63.86930882	    114.37844663	    107.17267093
      2.48333330	     -1.74074586	      1.32227650	     13.74037970	      1.12108737	      1.00646603	      0.19223370	      7.48741313	     -0.74717592	     -0.44600242	     16.63040906	      0.29025539	     17.72719647	     -3.85237474	     -7.49999987	     15.02191959	    -13.59996449	    -14.75298648	     18.59045195	      0.32446460	      5.93885630	     -9.85494612	     -7.49999987	     -8.14128088	      2.90045722	    -10.84361946	     52.17153116	     -2.10740120	     60.05353278	    122.97500789	     98.57772549	     45.73424093	      2.19077122	     64.13216253	    113.91400214	    109.92266755
      2.50000000	     -1.62925735	      1.32436590	     14.09049520	      1.12127785	      1.00422352	      0.19216005	      7.27727177	     -0.63909897	     -0.48812003	     16.66038098	      0.29077850	     17.77347548	     -3.31819395	     -7.49999987	     16.67746491	    -13.96565767	    -14.61467489	     18.77861031	      0.32774858	      5.60394790	    -10.24246115	     -7.49999987	     -8.54905602	      3.35380817	    -10.97452872	     52.39537857	     -2.08679298	     60.07111459	    122.78446047	     98.62416392	     46.19652794	      2.10344120	     64.08864786	    113.55212204	    109.46046479
      2.51666670	     -1.63479360	      1.23332092	     14.40945570	      1.11097466	      1.00528533	      0.19810687	      7.52080526	     -0.43660464	     -0.27391781	     17.15596308	      0.29942804	     17.66896336	     -3.18714264	     -7.49999987	     19.03185739	    -14.46350444	    -14.24160217	     19.53389639	      0.34093081	      4.94008733	    -11.00250394	     -7.49999987	     -9.21967035	      3.92156346	    -10.82499423	     53.11888164	     -2.19588351	     60.12435120	    122.74444634	     98.58195734	     46.98826253	      2.10345553	     64.18802090	    113.82693430	    109.34038245
      2.53333330	     -1.62736659	      1.21999746	     14.59922642	      1.11147764	      1.00703485	      0.19784938	      7.57896720	     -0.34330657	     -0.21913691	     17.39791012	      0.30365081	     17.58817254	     -2.85738458	     -7.49999987	     21.06730869	    -14.69462228	    -13.80387617	     19.93975314	      0.34801434	      4.25696673	    -12.01855583	     -7.49999987	     -9.85035164	      4.41113000	    -10.56890735	     54.10932813	     -2.37517905	     60.44154415	    122.73764331	     98.81575805	     47.66982845	      2.29363756	     64.02304126	    113.71885525	    109.58420095
      2.55000000	     -1.63012045	      1.20861345	     14.78619134	      1.11199226	      1.00683599	      0.20321878	      7.60922900	     -0.20938966	     -0.18309919	     17.63086631	      0.30771667	     17.44632616	     -2.53358244	     -7.49999987	     23.10293814	    -14.91341879	    -13.42343659	     20.35525929	      0.35526629	      3.69675538	    -12.83097770	     -7.49999987	    -10.29164239	      4.74687425	    -10.27687525	     54.65849487	     -2.37011856	     60.68673170	    122.93982976	     98.72179375	     48.14409121	      2.20791942	     63.95554018	    113.87172614	    109.12251132
      2.56666670	     -1.66753164	      1.32213696	     14.84312058	      1.11267896	      1.00853386	      0.20314148	      7.52557685	     -0.17672821	     -0.03774422	     17.70062091	      0.30893411	     17.38881535	     -2.38848339	     -7.49999987	     24.88920414	    -14.89929541	    -13.32934314	     20.75316406	      0.36221104	      3.55998528	    -13.11433934	     -7.49999987	    -10.68270230	      4.92288594	     -9.95769121	     55.16793949	     -2.40501289	     61.12529985	    123.18394866	     98.76778470	     48.29479859	      2.09552224	     64.00947419	    114.18093652	    109.18960379
